<mxfile host="app.diagrams.net" modified="2024-01-08T22:07:46.506Z" agent="Mozilla/5.0 (X11; Linux x86_64) AppleWebKit/537.36 (KHTML, like Gecko) Chrome/120.0.0.0 Safari/537.36" etag="mw0CerucsmsUm52DgTDH" version="22.1.17" type="github">
  <diagram id="R2lEEEUBdFMjLlhIrx00" name="Page-1">
    <mxGraphModel dx="1434" dy="760" grid="1" gridSize="10" guides="1" tooltips="1" connect="1" arrows="1" fold="1" page="1" pageScale="1" pageWidth="850" pageHeight="1100" math="0" shadow="0" extFonts="Permanent Marker^https://fonts.googleapis.com/css?family=Permanent+Marker">
      <root>
        <mxCell id="0" />
        <mxCell id="1" parent="0" />
        <mxCell id="Y6wzTD3312t-Q8md6YEm-3" value="&lt;p style=&quot;color: rgb(64, 64, 64); font-family: Raleway, &amp;quot;Helvetica Neue&amp;quot;, sans-serif; font-size: 18px; font-style: normal; font-variant-ligatures: normal; font-variant-caps: normal; font-weight: 400; letter-spacing: normal; orphans: 2; text-align: start; text-indent: 0px; text-transform: none; widows: 2; word-spacing: 0px; -webkit-text-stroke-width: 0px; background-color: rgb(253, 253, 253); text-decoration-thickness: initial; text-decoration-style: initial; text-decoration-color: initial;&quot;&gt;Una empresa tiene varios departamentos. Cada departamento tiene un supervisor y al menos un empleado. Los empleados deben ser asignados a por lo menos uno, pero posiblemente más departamentos. Al menos un empleado es asignado a un proyecto, pero un empleado puede estar de vacaciones y no asignado a ningún proyecto. Los campos de datos importantes son los nombres de los departamentos, proyectos, supervisores y empleados, así como el número de supervisor y empleado y un número de proyecto único.&lt;/p&gt;&lt;br class=&quot;Apple-interchange-newline&quot;&gt;" style="text;whiteSpace=wrap;html=1;" vertex="1" parent="1">
          <mxGeometry x="30" y="20" width="560" height="270" as="geometry" />
        </mxCell>
      </root>
    </mxGraphModel>
  </diagram>
</mxfile>
